<svg width="40" height="40" viewBox="0 0 40 40" fill="none" xmlns="http://www.w3.org/2000/svg">
<path d="M8 11.5998C8 10.6057 8.80589 9.7998 9.8 9.7998H30.2C31.1941 9.7998 32 10.6057 32 11.5998C32 12.5939 31.1941 13.3998 30.2 13.3998H9.8C8.80589 13.3998 8 12.5939 8 11.5998Z" fill="#585863"/>
<path d="M8.00012 19.9997C8.00012 19.0056 8.80601 18.1997 9.80012 18.1997H30.2001C31.1942 18.1997 32.0001 19.0056 32.0001 19.9997C32.0001 20.9938 31.1942 21.7997 30.2001 21.7997H9.80012C8.80601 21.7997 8.00012 20.9938 8.00012 19.9997Z" fill="#585863"/>
<path d="M8 28.4001C8 27.406 8.80589 26.6001 9.8 26.6001H30.2C31.1941 26.6001 32 27.406 32 28.4001C32 29.3942 31.1941 30.2001 30.2 30.2001H9.8C8.80589 30.2001 8 29.3942 8 28.4001Z" fill="#585863"/>
</svg>
