<svg width="60" height="60" viewBox="0 0 60 60" fill="none" xmlns="http://www.w3.org/2000/svg">
<rect x="0.5" y="0.5" width="59" height="59" fill="#01020E" stroke="#BB2765"/>
<path d="M31.068 26.7043L30.9551 27.3076L31.5687 27.2962C32.975 27.27 34.6354 27.2438 36.2967 27.2177L36.2992 27.2176C37.5944 27.1972 38.89 27.1768 40.0653 27.1564C37.615 30.7826 35.1652 34.4089 32.7155 38.0351L32.7124 38.0397L32.7023 38.0546C30.5257 41.2765 28.3491 44.4984 26.1721 47.7203C26.4979 45.986 26.8251 44.2448 27.1522 42.5036C27.6298 39.9622 28.1073 37.4207 28.5808 34.9002L28.692 34.3079H28.0893H19.9082C22.3632 30.4292 24.8181 26.551 27.2731 22.6728L27.274 22.6714L27.28 22.6619C29.4309 19.2642 31.5818 15.8664 33.7327 12.4681C33.3687 14.4134 33.0044 16.3589 32.6401 18.3045L32.6398 18.3061C32.1156 21.1057 31.5914 23.9054 31.068 26.7043Z" stroke="#AF145B"/>
</svg>
