<svg width="1920" height="1200" viewBox="0 0 1920 1200" fill="none" xmlns="http://www.w3.org/2000/svg">
<path d="M1920 1189.48C1920 1193.48 1918.24 1196.74 1916.07 1196.74L3.53554 1200C1.36902 1200 -0.394574 1196.74 -0.394574 1192.74C-0.394574 1188.73 1.36902 1185.47 3.53554 1185.47L1916.07 1182.22C1918.24 1182.31 1920 1185.47 1920 1189.48Z" fill="url(#paint0_radial_4437_4342)" fill-opacity="0.7"/>
<path d="M40.2157 1161.64L1879.24 1158.47C1881.1 1158.47 1882.67 1161.27 1882.67 1164.81C1882.67 1168.25 1881.15 1171.14 1879.24 1171.14L40.1653 1174.3C38.3011 1174.3 36.7392 1171.51 36.7392 1167.97C36.7896 1164.53 38.3011 1161.64 40.2157 1161.64Z" fill="url(#paint1_radial_4437_4342)" fill-opacity="0.7"/>
<path d="M76.8937 1137.71L959.675 1135.2L1842.46 1134.64C1844.07 1134.64 1845.38 1137.06 1845.38 1140.04C1845.38 1143.02 1844.07 1145.44 1842.46 1145.44L959.675 1147.96L76.8937 1148.52C75.2814 1148.52 73.9714 1146.09 73.9714 1143.12C73.9714 1140.14 75.2814 1137.71 76.8937 1137.71Z" fill="url(#paint2_radial_4437_4342)" fill-opacity="0.7"/>
<path d="M113.574 1113.78L959.626 1110.9L1805.68 1110.81C1807.04 1110.81 1808.2 1112.85 1808.2 1115.46C1808.2 1117.97 1807.09 1120.12 1805.73 1120.12L959.676 1123L113.624 1123.1C112.264 1123.1 111.105 1121.05 111.105 1118.44C111.105 1115.83 112.163 1113.78 113.574 1113.78Z" fill="url(#paint3_radial_4437_4342)" fill-opacity="0.7"/>
<path d="M150.255 1089.76L352.598 1088.55L959.627 1086.59L1566.66 1086.31L1769 1086.78C1770.16 1086.78 1771.12 1088.55 1771.06 1090.69C1771.06 1092.83 1770.16 1094.6 1769 1094.51L1566.66 1095.72L959.627 1097.67L352.598 1097.95L150.255 1097.49C149.096 1097.49 148.139 1095.72 148.189 1093.58C148.139 1091.44 149.096 1089.76 150.255 1089.76Z" fill="url(#paint4_radial_4437_4342)" fill-opacity="0.7"/>
<path d="M186.884 1065.65L380.057 1064.34L959.526 1062.2L1538.99 1062.11L1732.17 1062.67C1733.12 1062.67 1733.88 1064.06 1733.88 1065.83C1733.88 1067.6 1733.12 1069 1732.17 1069L1538.99 1070.3L959.526 1072.44L380.057 1072.54L186.884 1071.98C185.926 1071.98 185.171 1070.58 185.171 1068.81C185.171 1067.04 185.977 1065.65 186.884 1065.65Z" fill="url(#paint5_radial_4437_4342)" fill-opacity="0.7"/>
<path d="M223.564 1041.44L407.517 1040.04L959.426 1037.8H1511.33L1695.29 1038.55C1696.04 1038.55 1696.65 1039.67 1696.65 1041.16C1696.65 1042.55 1696.04 1043.67 1695.29 1043.67L1511.33 1045.07L959.426 1047.3H407.517L223.564 1046.56C222.809 1046.56 222.204 1045.44 222.204 1043.95C222.204 1042.55 222.809 1041.44 223.564 1041.44Z" fill="url(#paint6_radial_4437_4342)" fill-opacity="0.7"/>
<path d="M260.243 1017.23L435.026 1015.74L959.374 1013.51L1483.72 1013.69L1658.51 1014.44C1659.11 1014.44 1659.56 1015.37 1659.56 1016.49C1659.56 1017.6 1659.06 1018.44 1658.51 1018.44L1483.72 1019.93L959.374 1022.17L435.026 1021.98L260.243 1021.24C259.638 1021.24 259.185 1020.31 259.185 1019.19C259.185 1018.07 259.638 1017.23 260.243 1017.23Z" fill="url(#paint7_radial_4437_4342)" fill-opacity="0.7"/>
<path d="M296.923 992.928L462.536 991.438L959.375 989.203L1456.21 989.389L1621.83 990.227C1622.28 990.227 1622.63 990.879 1622.63 991.717C1622.63 992.555 1622.28 993.207 1621.83 993.207L1456.21 994.697L959.375 996.931L462.536 996.745L296.923 995.907C296.47 995.907 296.117 995.255 296.117 994.417C296.117 993.579 296.47 992.928 296.923 992.928Z" fill="url(#paint8_radial_4437_4342)" fill-opacity="0.7"/>
<path d="M333.602 968.532L489.995 967.042L959.273 964.807L1428.55 965.086L1584.99 965.924C1585.3 965.924 1585.6 966.39 1585.6 967.042C1585.6 967.6 1585.35 968.159 1584.99 968.159L1428.6 969.649L959.324 971.883L490.045 971.604L333.602 970.766C333.3 970.766 332.997 970.301 332.997 969.649C332.997 968.997 333.3 968.532 333.602 968.532Z" fill="url(#paint9_radial_4437_4342)" fill-opacity="0.7"/>
<path d="M370.283 944.135L517.506 942.646L959.174 940.411L1400.89 940.691L1548.12 941.529C1548.32 941.529 1548.52 941.808 1548.52 942.273C1548.52 942.646 1548.37 943.018 1548.12 943.018L1400.89 944.508L959.225 946.743L517.506 946.463L370.283 945.625C370.082 945.625 369.88 945.346 369.88 944.88C369.88 944.415 370.082 944.135 370.283 944.135Z" fill="url(#paint10_radial_4437_4342)" fill-opacity="0.7"/>
<path d="M406.963 919.653L545.016 918.257L959.174 916.115L1373.33 916.301L1511.39 917.046C1511.49 917.046 1511.59 917.233 1511.59 917.419C1511.59 917.605 1511.49 917.791 1511.39 917.791L1373.33 919.188L959.174 921.329L545.016 921.143L406.963 920.398C406.862 920.398 406.761 920.212 406.761 920.026C406.711 919.84 406.812 919.653 406.963 919.653Z" fill="url(#paint11_radial_4437_4342)" fill-opacity="0.7"/>
<path d="M443.641 895.069L572.524 893.766L959.122 891.81L1345.72 891.996L1474.6 892.741C1474.65 892.741 1474.7 892.834 1474.7 892.927C1474.7 893.021 1474.65 893.114 1474.6 893.114L1345.72 894.417L959.122 896.373L572.524 896.186L443.641 895.441C443.591 895.441 443.54 895.348 443.54 895.255C443.54 895.162 443.591 895.069 443.641 895.069Z" fill="url(#paint12_radial_4437_4342)" fill-opacity="0.7"/>
<path d="M480.322 870.487L599.985 869.276L959.022 867.414H1318.11L1437.77 867.973L1318.11 869.183L959.022 871.046H599.985L480.322 870.487Z" fill="url(#paint13_radial_4437_4342)" fill-opacity="0.7"/>
<path d="M2.17387 1185.94L480.32 870.48L4.89481 1199.53L2.17387 1185.94Z" fill="url(#paint14_radial_4437_4342)" fill-opacity="0.7"/>
<path d="M214.393 1185.85L586.682 870.208L217.718 1198.98L214.393 1185.85Z" fill="url(#paint15_radial_4437_4342)" fill-opacity="0.7"/>
<path d="M426.41 1185.94L693.094 869.926L430.693 1198.05L426.41 1185.94Z" fill="url(#paint16_radial_4437_4342)" fill-opacity="0.7"/>
<path d="M638.122 1186.78L799.452 869.644L643.967 1196.55L638.122 1186.78Z" fill="url(#paint17_radial_4437_4342)" fill-opacity="0.7"/>
<path d="M849.787 1189.2L905.865 869.371L857.295 1193.39L849.787 1189.2Z" fill="url(#paint18_radial_4437_4342)" fill-opacity="0.7"/>
<path d="M1062.31 1193.11L1012.22 869.089L1069.81 1188.83L1062.31 1193.11Z" fill="url(#paint19_radial_4437_4342)" fill-opacity="0.7"/>
<path d="M1275.68 1195.53L1118.64 868.807L1281.43 1185.66L1275.68 1195.53Z" fill="url(#paint20_radial_4437_4342)" fill-opacity="0.7"/>
<path d="M1488.91 1196.27L1225 868.525L1493.2 1184.17L1488.91 1196.27Z" fill="url(#paint21_radial_4437_4342)" fill-opacity="0.7"/>
<path d="M1701.88 1196.47L1331.41 868.253L1705.21 1183.34L1701.88 1196.47Z" fill="url(#paint22_radial_4437_4342)" fill-opacity="0.7"/>
<path d="M1914.71 1196.37L1437.77 867.971L1917.43 1182.68L1914.71 1196.37Z" fill="url(#paint23_radial_4437_4342)" fill-opacity="0.7"/>
<path d="M1919.39 7.26259C1919.39 11.2663 1917.63 14.5252 1915.46 14.5252L2.93012 17.7841C0.763595 17.7841 -1 14.5251 -1 10.5214C-1 6.51762 0.763595 3.25877 2.93012 3.25877L1915.46 0C1917.63 0 1919.39 3.25885 1919.39 7.26259Z" fill="url(#paint24_radial_4437_4342)" fill-opacity="0.7"/>
<path d="M39.6596 28.8597L1878.68 25.7872C1880.55 25.7872 1882.11 28.5804 1882.11 32.1186C1882.11 35.5637 1880.6 38.45 1878.68 38.45L39.6092 41.5227C37.745 41.5227 36.1831 38.7294 36.1831 35.1913C36.2335 31.6531 37.745 28.8597 39.6596 28.8597Z" fill="url(#paint25_radial_4437_4342)" fill-opacity="0.7"/>
<path d="M76.3398 54.3789L959.122 51.9581L1841.9 51.4925C1843.52 51.4925 1844.83 53.9134 1844.83 56.8929C1844.83 59.8724 1843.52 62.2933 1841.9 62.2933L959.122 64.7141L76.3398 65.1797C74.7275 65.1797 73.4177 62.7588 73.4177 59.7793C73.4177 56.7998 74.7275 54.3789 76.3398 54.3789Z" fill="url(#paint26_radial_4437_4342)" fill-opacity="0.7"/>
<path d="M113.02 79.8842L959.072 77.1839L1805.12 77.2771C1806.48 77.2771 1807.64 79.3256 1807.64 81.9326C1807.64 84.4466 1806.53 86.5882 1805.17 86.5882L959.122 89.2883L113.071 89.1952C111.71 89.1952 110.551 87.1468 110.551 84.5397C110.551 81.9326 111.66 79.8842 113.02 79.8842Z" fill="url(#paint27_radial_4437_4342)" fill-opacity="0.7"/>
<path d="M149.75 105.31L352.094 104.193L959.123 102.33H1566.15L1768.49 102.889C1769.65 102.889 1770.61 104.658 1770.56 106.8C1770.51 108.941 1769.65 110.71 1768.49 110.617L1566.15 111.735L959.123 113.597H352.094L149.75 113.038C148.591 113.038 147.634 111.269 147.685 109.127C147.634 106.986 148.591 105.31 149.75 105.31Z" fill="url(#paint28_radial_4437_4342)" fill-opacity="0.7"/>
<path d="M186.429 130.638L379.602 129.334L959.071 127.472L1538.54 127.658L1731.71 128.31C1732.67 128.31 1733.43 129.706 1733.43 131.476C1733.43 133.245 1732.67 134.641 1731.71 134.641L1538.54 135.945L959.071 137.807L379.602 137.621L186.429 136.969C185.472 136.969 184.716 135.572 184.716 133.803C184.716 132.034 185.472 130.638 186.429 130.638Z" fill="url(#paint29_radial_4437_4342)" fill-opacity="0.7"/>
<path d="M223.159 155.863L407.111 154.56L959.02 152.604L1510.93 152.884L1694.88 153.722C1695.64 153.722 1696.24 154.839 1696.24 156.329C1696.24 157.725 1695.64 158.843 1694.88 158.843L1510.93 160.146L959.02 162.102L407.111 161.822L223.159 160.984C222.403 160.984 221.798 159.867 221.798 158.377C221.748 157.074 222.403 155.956 223.159 155.863Z" fill="url(#paint30_radial_4437_4342)" fill-opacity="0.7"/>
<path d="M259.84 181.098L434.623 179.701L958.971 177.746L1483.32 178.212L1658.1 179.143C1658.71 179.143 1659.16 180.074 1659.16 181.191C1659.16 182.308 1658.66 183.146 1658.1 183.146L1483.32 184.543L958.971 186.498L434.623 186.033L259.84 185.102C259.235 185.102 258.781 184.171 258.781 183.053C258.781 182.029 259.235 181.098 259.84 181.098Z" fill="url(#paint31_radial_4437_4342)" fill-opacity="0.7"/>
<path d="M296.52 206.328L462.132 204.932L958.971 203.069L1455.81 203.628L1621.42 204.559C1621.88 204.559 1622.23 205.211 1622.23 206.049C1622.23 206.887 1621.88 207.539 1621.42 207.539L1455.81 208.935L958.971 210.798L462.132 210.239L296.52 209.308C296.066 209.308 295.714 208.656 295.714 207.818C295.714 206.98 296.066 206.328 296.52 206.328Z" fill="url(#paint32_radial_4437_4342)" fill-opacity="0.7"/>
<path d="M333.248 231.379L489.691 229.982L958.97 228.12L1428.25 228.865L1584.69 229.889C1584.99 229.889 1585.3 230.355 1585.3 231.007C1585.3 231.565 1585.04 232.124 1584.69 232.124L1428.25 233.52L958.97 235.383L489.691 234.638L333.248 233.614C332.946 233.614 332.643 233.148 332.643 232.496C332.643 231.845 332.895 231.379 333.248 231.379Z" fill="url(#paint33_radial_4437_4342)" fill-opacity="0.7"/>
<path d="M369.928 256.423L517.151 255.119L958.819 253.444L1400.54 254.188L1547.76 255.213C1547.96 255.213 1548.16 255.492 1548.16 255.957C1548.16 256.33 1548.01 256.702 1547.76 256.702L1400.54 258.006L958.869 259.682L517.201 258.937L369.978 257.913C369.777 257.913 369.575 257.633 369.575 257.168C369.575 256.795 369.726 256.423 369.928 256.423Z" fill="url(#paint34_radial_4437_4342)" fill-opacity="0.7"/>
<path d="M406.608 281.378L544.661 280.168L958.819 278.585L1372.98 279.33L1511.03 280.261C1511.13 280.261 1511.23 280.447 1511.23 280.634C1511.23 280.82 1511.13 281.006 1511.03 281.006L1372.98 282.216L958.819 283.799L544.661 283.054L406.608 282.123C406.507 282.123 406.406 281.937 406.406 281.751C406.406 281.565 406.507 281.378 406.608 281.378Z" fill="url(#paint35_radial_4437_4342)" fill-opacity="0.7"/>
<path d="M443.338 306.332L572.221 305.214L958.819 303.818L1345.42 304.563L1474.3 305.494C1474.35 305.494 1474.4 305.587 1474.4 305.68C1474.4 305.773 1474.35 305.866 1474.3 305.866L1345.42 306.983L958.819 308.38L572.221 307.635L443.338 306.704C443.288 306.704 443.237 306.611 443.237 306.518C443.237 306.425 443.288 306.332 443.338 306.332Z" fill="url(#paint36_radial_4437_4342)" fill-opacity="0.7"/>
<path d="M480.017 331.196L599.73 330.172L958.768 328.868L1317.81 329.52L1437.52 330.358L1317.81 331.382L958.768 332.593L599.73 331.941L480.017 331.196Z" fill="url(#paint37_radial_4437_4342)" fill-opacity="0.7"/>
<path d="M4.29109 3.628L480.018 331.19L1.62057 17.3152L4.29109 3.628Z" fill="url(#paint38_radial_4437_4342)" fill-opacity="0.7"/>
<path d="M217.113 3.5371L586.429 331.099L213.787 16.6657L217.113 3.5371Z" fill="url(#paint39_radial_4437_4342)" fill-opacity="0.7"/>
<path d="M430.087 3.72805L692.791 331.011L425.805 15.8324L430.087 3.72805Z" fill="url(#paint40_radial_4437_4342)" fill-opacity="0.7"/>
<path d="M643.365 4.47366L799.204 330.918L637.571 14.2503L643.365 4.47366Z" fill="url(#paint41_radial_4437_4342)" fill-opacity="0.7"/>
<path d="M856.741 6.89234L905.563 330.823L849.234 11.0824L856.741 6.89234Z" fill="url(#paint42_radial_4437_4342)" fill-opacity="0.7"/>
<path d="M1069.21 10.8027L1011.97 330.729L1061.7 6.51954L1069.21 10.8027Z" fill="url(#paint43_radial_4437_4342)" fill-opacity="0.7"/>
<path d="M1280.88 13.2228L1118.34 330.636L1275.08 3.44617L1280.88 13.2228Z" fill="url(#paint44_radial_4437_4342)" fill-opacity="0.7"/>
<path d="M1492.64 13.9684L1224.75 330.543L1488.31 1.86402L1492.64 13.9684Z" fill="url(#paint45_radial_4437_4342)" fill-opacity="0.7"/>
<path d="M1704.66 14.1561L1331.11 330.451L1701.33 1.02749L1704.66 14.1561Z" fill="url(#paint46_radial_4437_4342)" fill-opacity="0.7"/>
<path d="M1916.82 14.06L1437.52 330.358L1914.15 0.372805L1916.82 14.06Z" fill="url(#paint47_radial_4437_4342)" fill-opacity="0.7"/>
<defs>
<radialGradient id="paint0_radial_4437_4342" cx="0" cy="0" r="1" gradientUnits="userSpaceOnUse" gradientTransform="translate(960.027 582.008) rotate(90.0489) scale(617.992 989.304)">
<stop stop-color="#BB2765" stop-opacity="0.15"/>
<stop offset="1" stop-color="#BB2765" stop-opacity="0.5"/>
</radialGradient>
<radialGradient id="paint1_radial_4437_4342" cx="0" cy="0" r="1" gradientUnits="userSpaceOnUse" gradientTransform="translate(960.027 582.008) rotate(90.0489) scale(617.992 989.304)">
<stop stop-color="#BB2765" stop-opacity="0.15"/>
<stop offset="1" stop-color="#BB2765" stop-opacity="0.5"/>
</radialGradient>
<radialGradient id="paint2_radial_4437_4342" cx="0" cy="0" r="1" gradientUnits="userSpaceOnUse" gradientTransform="translate(960.027 582.008) rotate(90.0489) scale(617.992 989.304)">
<stop stop-color="#BB2765" stop-opacity="0.15"/>
<stop offset="1" stop-color="#BB2765" stop-opacity="0.5"/>
</radialGradient>
<radialGradient id="paint3_radial_4437_4342" cx="0" cy="0" r="1" gradientUnits="userSpaceOnUse" gradientTransform="translate(960.027 582.008) rotate(90.0489) scale(617.992 989.304)">
<stop stop-color="#BB2765" stop-opacity="0.15"/>
<stop offset="1" stop-color="#BB2765" stop-opacity="0.5"/>
</radialGradient>
<radialGradient id="paint4_radial_4437_4342" cx="0" cy="0" r="1" gradientUnits="userSpaceOnUse" gradientTransform="translate(960.027 582.008) rotate(90.0489) scale(617.992 989.304)">
<stop stop-color="#BB2765" stop-opacity="0.15"/>
<stop offset="1" stop-color="#BB2765" stop-opacity="0.5"/>
</radialGradient>
<radialGradient id="paint5_radial_4437_4342" cx="0" cy="0" r="1" gradientUnits="userSpaceOnUse" gradientTransform="translate(960.027 582.008) rotate(90.0489) scale(617.992 989.304)">
<stop stop-color="#BB2765" stop-opacity="0.15"/>
<stop offset="1" stop-color="#BB2765" stop-opacity="0.5"/>
</radialGradient>
<radialGradient id="paint6_radial_4437_4342" cx="0" cy="0" r="1" gradientUnits="userSpaceOnUse" gradientTransform="translate(960.027 582.008) rotate(90.0489) scale(617.992 989.304)">
<stop stop-color="#BB2765" stop-opacity="0.15"/>
<stop offset="1" stop-color="#BB2765" stop-opacity="0.5"/>
</radialGradient>
<radialGradient id="paint7_radial_4437_4342" cx="0" cy="0" r="1" gradientUnits="userSpaceOnUse" gradientTransform="translate(960.027 582.008) rotate(90.0489) scale(617.992 989.304)">
<stop stop-color="#BB2765" stop-opacity="0.15"/>
<stop offset="1" stop-color="#BB2765" stop-opacity="0.5"/>
</radialGradient>
<radialGradient id="paint8_radial_4437_4342" cx="0" cy="0" r="1" gradientUnits="userSpaceOnUse" gradientTransform="translate(960.027 582.008) rotate(90.0489) scale(617.992 989.304)">
<stop stop-color="#BB2765" stop-opacity="0.15"/>
<stop offset="1" stop-color="#BB2765" stop-opacity="0.5"/>
</radialGradient>
<radialGradient id="paint9_radial_4437_4342" cx="0" cy="0" r="1" gradientUnits="userSpaceOnUse" gradientTransform="translate(960.027 582.008) rotate(90.0489) scale(617.992 989.304)">
<stop stop-color="#BB2765" stop-opacity="0.15"/>
<stop offset="1" stop-color="#BB2765" stop-opacity="0.5"/>
</radialGradient>
<radialGradient id="paint10_radial_4437_4342" cx="0" cy="0" r="1" gradientUnits="userSpaceOnUse" gradientTransform="translate(960.027 582.008) rotate(90.0489) scale(617.992 989.304)">
<stop stop-color="#BB2765" stop-opacity="0.15"/>
<stop offset="1" stop-color="#BB2765" stop-opacity="0.5"/>
</radialGradient>
<radialGradient id="paint11_radial_4437_4342" cx="0" cy="0" r="1" gradientUnits="userSpaceOnUse" gradientTransform="translate(960.027 582.008) rotate(90.0489) scale(617.992 989.304)">
<stop stop-color="#BB2765" stop-opacity="0.15"/>
<stop offset="1" stop-color="#BB2765" stop-opacity="0.5"/>
</radialGradient>
<radialGradient id="paint12_radial_4437_4342" cx="0" cy="0" r="1" gradientUnits="userSpaceOnUse" gradientTransform="translate(960.027 582.008) rotate(90.0489) scale(617.992 989.304)">
<stop stop-color="#BB2765" stop-opacity="0.15"/>
<stop offset="1" stop-color="#BB2765" stop-opacity="0.5"/>
</radialGradient>
<radialGradient id="paint13_radial_4437_4342" cx="0" cy="0" r="1" gradientUnits="userSpaceOnUse" gradientTransform="translate(960.027 582.008) rotate(90.0489) scale(617.992 989.304)">
<stop stop-color="#BB2765" stop-opacity="0.15"/>
<stop offset="1" stop-color="#BB2765" stop-opacity="0.5"/>
</radialGradient>
<radialGradient id="paint14_radial_4437_4342" cx="0" cy="0" r="1" gradientUnits="userSpaceOnUse" gradientTransform="translate(960.027 582.008) rotate(90.0489) scale(617.992 989.304)">
<stop stop-color="#BB2765" stop-opacity="0.15"/>
<stop offset="1" stop-color="#BB2765" stop-opacity="0.5"/>
</radialGradient>
<radialGradient id="paint15_radial_4437_4342" cx="0" cy="0" r="1" gradientUnits="userSpaceOnUse" gradientTransform="translate(960.027 582.008) rotate(90.0489) scale(617.992 989.304)">
<stop stop-color="#BB2765" stop-opacity="0.15"/>
<stop offset="1" stop-color="#BB2765" stop-opacity="0.5"/>
</radialGradient>
<radialGradient id="paint16_radial_4437_4342" cx="0" cy="0" r="1" gradientUnits="userSpaceOnUse" gradientTransform="translate(960.027 582.008) rotate(90.0489) scale(617.992 989.304)">
<stop stop-color="#BB2765" stop-opacity="0.15"/>
<stop offset="1" stop-color="#BB2765" stop-opacity="0.5"/>
</radialGradient>
<radialGradient id="paint17_radial_4437_4342" cx="0" cy="0" r="1" gradientUnits="userSpaceOnUse" gradientTransform="translate(960.027 582.008) rotate(90.0489) scale(617.992 989.304)">
<stop stop-color="#BB2765" stop-opacity="0.15"/>
<stop offset="1" stop-color="#BB2765" stop-opacity="0.5"/>
</radialGradient>
<radialGradient id="paint18_radial_4437_4342" cx="0" cy="0" r="1" gradientUnits="userSpaceOnUse" gradientTransform="translate(960.027 582.008) rotate(90.0489) scale(617.992 989.304)">
<stop stop-color="#BB2765" stop-opacity="0.15"/>
<stop offset="1" stop-color="#BB2765" stop-opacity="0.5"/>
</radialGradient>
<radialGradient id="paint19_radial_4437_4342" cx="0" cy="0" r="1" gradientUnits="userSpaceOnUse" gradientTransform="translate(960.027 582.008) rotate(90.0489) scale(617.992 989.304)">
<stop stop-color="#BB2765" stop-opacity="0.15"/>
<stop offset="1" stop-color="#BB2765" stop-opacity="0.5"/>
</radialGradient>
<radialGradient id="paint20_radial_4437_4342" cx="0" cy="0" r="1" gradientUnits="userSpaceOnUse" gradientTransform="translate(960.027 582.008) rotate(90.0489) scale(617.992 989.304)">
<stop stop-color="#BB2765" stop-opacity="0.15"/>
<stop offset="1" stop-color="#BB2765" stop-opacity="0.5"/>
</radialGradient>
<radialGradient id="paint21_radial_4437_4342" cx="0" cy="0" r="1" gradientUnits="userSpaceOnUse" gradientTransform="translate(960.027 582.008) rotate(90.0489) scale(617.992 989.304)">
<stop stop-color="#BB2765" stop-opacity="0.15"/>
<stop offset="1" stop-color="#BB2765" stop-opacity="0.5"/>
</radialGradient>
<radialGradient id="paint22_radial_4437_4342" cx="0" cy="0" r="1" gradientUnits="userSpaceOnUse" gradientTransform="translate(960.027 582.008) rotate(90.0489) scale(617.992 989.304)">
<stop stop-color="#BB2765" stop-opacity="0.15"/>
<stop offset="1" stop-color="#BB2765" stop-opacity="0.5"/>
</radialGradient>
<radialGradient id="paint23_radial_4437_4342" cx="0" cy="0" r="1" gradientUnits="userSpaceOnUse" gradientTransform="translate(960.027 582.008) rotate(90.0489) scale(617.992 989.304)">
<stop stop-color="#BB2765" stop-opacity="0.15"/>
<stop offset="1" stop-color="#BB2765" stop-opacity="0.5"/>
</radialGradient>
<radialGradient id="paint24_radial_4437_4342" cx="0" cy="0" r="1" gradientUnits="userSpaceOnUse" gradientTransform="translate(960.027 582.008) rotate(90.0489) scale(617.992 989.304)">
<stop stop-color="#BB2765" stop-opacity="0.15"/>
<stop offset="1" stop-color="#BB2765" stop-opacity="0.5"/>
</radialGradient>
<radialGradient id="paint25_radial_4437_4342" cx="0" cy="0" r="1" gradientUnits="userSpaceOnUse" gradientTransform="translate(960.027 582.008) rotate(90.0489) scale(617.992 989.304)">
<stop stop-color="#BB2765" stop-opacity="0.15"/>
<stop offset="1" stop-color="#BB2765" stop-opacity="0.5"/>
</radialGradient>
<radialGradient id="paint26_radial_4437_4342" cx="0" cy="0" r="1" gradientUnits="userSpaceOnUse" gradientTransform="translate(960.027 582.008) rotate(90.0489) scale(617.992 989.304)">
<stop stop-color="#BB2765" stop-opacity="0.15"/>
<stop offset="1" stop-color="#BB2765" stop-opacity="0.5"/>
</radialGradient>
<radialGradient id="paint27_radial_4437_4342" cx="0" cy="0" r="1" gradientUnits="userSpaceOnUse" gradientTransform="translate(960.027 582.008) rotate(90.0489) scale(617.992 989.304)">
<stop stop-color="#BB2765" stop-opacity="0.15"/>
<stop offset="1" stop-color="#BB2765" stop-opacity="0.5"/>
</radialGradient>
<radialGradient id="paint28_radial_4437_4342" cx="0" cy="0" r="1" gradientUnits="userSpaceOnUse" gradientTransform="translate(960.027 582.008) rotate(90.0489) scale(617.992 989.304)">
<stop stop-color="#BB2765" stop-opacity="0.15"/>
<stop offset="1" stop-color="#BB2765" stop-opacity="0.5"/>
</radialGradient>
<radialGradient id="paint29_radial_4437_4342" cx="0" cy="0" r="1" gradientUnits="userSpaceOnUse" gradientTransform="translate(960.027 582.008) rotate(90.0489) scale(617.992 989.304)">
<stop stop-color="#BB2765" stop-opacity="0.15"/>
<stop offset="1" stop-color="#BB2765" stop-opacity="0.5"/>
</radialGradient>
<radialGradient id="paint30_radial_4437_4342" cx="0" cy="0" r="1" gradientUnits="userSpaceOnUse" gradientTransform="translate(960.027 582.008) rotate(90.0489) scale(617.992 989.304)">
<stop stop-color="#BB2765" stop-opacity="0.15"/>
<stop offset="1" stop-color="#BB2765" stop-opacity="0.5"/>
</radialGradient>
<radialGradient id="paint31_radial_4437_4342" cx="0" cy="0" r="1" gradientUnits="userSpaceOnUse" gradientTransform="translate(960.027 582.008) rotate(90.0489) scale(617.992 989.304)">
<stop stop-color="#BB2765" stop-opacity="0.15"/>
<stop offset="1" stop-color="#BB2765" stop-opacity="0.5"/>
</radialGradient>
<radialGradient id="paint32_radial_4437_4342" cx="0" cy="0" r="1" gradientUnits="userSpaceOnUse" gradientTransform="translate(960.027 582.008) rotate(90.0489) scale(617.992 989.304)">
<stop stop-color="#BB2765" stop-opacity="0.15"/>
<stop offset="1" stop-color="#BB2765" stop-opacity="0.5"/>
</radialGradient>
<radialGradient id="paint33_radial_4437_4342" cx="0" cy="0" r="1" gradientUnits="userSpaceOnUse" gradientTransform="translate(960.027 582.008) rotate(90.0489) scale(617.992 989.304)">
<stop stop-color="#BB2765" stop-opacity="0.15"/>
<stop offset="1" stop-color="#BB2765" stop-opacity="0.5"/>
</radialGradient>
<radialGradient id="paint34_radial_4437_4342" cx="0" cy="0" r="1" gradientUnits="userSpaceOnUse" gradientTransform="translate(960.027 582.008) rotate(90.0489) scale(617.992 989.304)">
<stop stop-color="#BB2765" stop-opacity="0.15"/>
<stop offset="1" stop-color="#BB2765" stop-opacity="0.5"/>
</radialGradient>
<radialGradient id="paint35_radial_4437_4342" cx="0" cy="0" r="1" gradientUnits="userSpaceOnUse" gradientTransform="translate(960.027 582.008) rotate(90.0489) scale(617.992 989.304)">
<stop stop-color="#BB2765" stop-opacity="0.15"/>
<stop offset="1" stop-color="#BB2765" stop-opacity="0.5"/>
</radialGradient>
<radialGradient id="paint36_radial_4437_4342" cx="0" cy="0" r="1" gradientUnits="userSpaceOnUse" gradientTransform="translate(960.027 582.008) rotate(90.0489) scale(617.992 989.304)">
<stop stop-color="#BB2765" stop-opacity="0.15"/>
<stop offset="1" stop-color="#BB2765" stop-opacity="0.5"/>
</radialGradient>
<radialGradient id="paint37_radial_4437_4342" cx="0" cy="0" r="1" gradientUnits="userSpaceOnUse" gradientTransform="translate(960.027 582.008) rotate(90.0489) scale(617.992 989.304)">
<stop stop-color="#BB2765" stop-opacity="0.15"/>
<stop offset="1" stop-color="#BB2765" stop-opacity="0.5"/>
</radialGradient>
<radialGradient id="paint38_radial_4437_4342" cx="0" cy="0" r="1" gradientUnits="userSpaceOnUse" gradientTransform="translate(960.027 582.008) rotate(90.0489) scale(617.992 989.304)">
<stop stop-color="#BB2765" stop-opacity="0.15"/>
<stop offset="1" stop-color="#BB2765" stop-opacity="0.5"/>
</radialGradient>
<radialGradient id="paint39_radial_4437_4342" cx="0" cy="0" r="1" gradientUnits="userSpaceOnUse" gradientTransform="translate(960.027 582.008) rotate(90.0489) scale(617.992 989.304)">
<stop stop-color="#BB2765" stop-opacity="0.15"/>
<stop offset="1" stop-color="#BB2765" stop-opacity="0.5"/>
</radialGradient>
<radialGradient id="paint40_radial_4437_4342" cx="0" cy="0" r="1" gradientUnits="userSpaceOnUse" gradientTransform="translate(960.027 582.008) rotate(90.0489) scale(617.992 989.304)">
<stop stop-color="#BB2765" stop-opacity="0.15"/>
<stop offset="1" stop-color="#BB2765" stop-opacity="0.5"/>
</radialGradient>
<radialGradient id="paint41_radial_4437_4342" cx="0" cy="0" r="1" gradientUnits="userSpaceOnUse" gradientTransform="translate(960.027 582.008) rotate(90.0489) scale(617.992 989.304)">
<stop stop-color="#BB2765" stop-opacity="0.15"/>
<stop offset="1" stop-color="#BB2765" stop-opacity="0.5"/>
</radialGradient>
<radialGradient id="paint42_radial_4437_4342" cx="0" cy="0" r="1" gradientUnits="userSpaceOnUse" gradientTransform="translate(960.027 582.008) rotate(90.0489) scale(617.992 989.304)">
<stop stop-color="#BB2765" stop-opacity="0.15"/>
<stop offset="1" stop-color="#BB2765" stop-opacity="0.5"/>
</radialGradient>
<radialGradient id="paint43_radial_4437_4342" cx="0" cy="0" r="1" gradientUnits="userSpaceOnUse" gradientTransform="translate(960.027 582.008) rotate(90.0489) scale(617.992 989.304)">
<stop stop-color="#BB2765" stop-opacity="0.15"/>
<stop offset="1" stop-color="#BB2765" stop-opacity="0.5"/>
</radialGradient>
<radialGradient id="paint44_radial_4437_4342" cx="0" cy="0" r="1" gradientUnits="userSpaceOnUse" gradientTransform="translate(960.027 582.008) rotate(90.0489) scale(617.992 989.304)">
<stop stop-color="#BB2765" stop-opacity="0.15"/>
<stop offset="1" stop-color="#BB2765" stop-opacity="0.5"/>
</radialGradient>
<radialGradient id="paint45_radial_4437_4342" cx="0" cy="0" r="1" gradientUnits="userSpaceOnUse" gradientTransform="translate(960.027 582.008) rotate(90.0489) scale(617.992 989.304)">
<stop stop-color="#BB2765" stop-opacity="0.15"/>
<stop offset="1" stop-color="#BB2765" stop-opacity="0.5"/>
</radialGradient>
<radialGradient id="paint46_radial_4437_4342" cx="0" cy="0" r="1" gradientUnits="userSpaceOnUse" gradientTransform="translate(960.027 582.008) rotate(90.0489) scale(617.992 989.304)">
<stop stop-color="#BB2765" stop-opacity="0.15"/>
<stop offset="1" stop-color="#BB2765" stop-opacity="0.5"/>
</radialGradient>
<radialGradient id="paint47_radial_4437_4342" cx="0" cy="0" r="1" gradientUnits="userSpaceOnUse" gradientTransform="translate(960.027 582.008) rotate(90.0489) scale(617.992 989.304)">
<stop stop-color="#BB2765" stop-opacity="0.15"/>
<stop offset="1" stop-color="#BB2765" stop-opacity="0.5"/>
</radialGradient>
</defs>
</svg>
