<svg width="20" height="25" viewBox="0 0 20 25" fill="none" xmlns="http://www.w3.org/2000/svg">
<path d="M16.6667 12.4992C16.4457 12.4992 16.2337 12.587 16.0774 12.7433C15.9211 12.8995 15.8333 13.1115 15.8333 13.3325V18.3325C15.8333 18.5535 15.7455 18.7655 15.5893 18.9218C15.433 19.0781 15.221 19.1659 15 19.1659H5C4.77899 19.1659 4.56702 19.0781 4.41074 18.9218C4.25446 18.7655 4.16667 18.5535 4.16667 18.3325V8.33252C4.16667 8.11151 4.25446 7.89954 4.41074 7.74326C4.56702 7.58698 4.77899 7.49919 5 7.49919H10C10.221 7.49919 10.433 7.41139 10.5893 7.25511C10.7455 7.09883 10.8333 6.88687 10.8333 6.66585C10.8333 6.44484 10.7455 6.23288 10.5893 6.0766C10.433 5.92032 10.221 5.83252 10 5.83252H5C4.33696 5.83252 3.70107 6.09591 3.23223 6.56475C2.76339 7.03359 2.5 7.66948 2.5 8.33252V18.3325C2.5 18.9956 2.76339 19.6314 3.23223 20.1003C3.70107 20.5691 4.33696 20.8325 5 20.8325H15C15.663 20.8325 16.2989 20.5691 16.7678 20.1003C17.2366 19.6314 17.5 18.9956 17.5 18.3325V13.3325C17.5 13.1115 17.4122 12.8995 17.2559 12.7433C17.0996 12.587 16.8877 12.4992 16.6667 12.4992Z" fill="white"/>
<path d="M13.3341 7.49919H14.6508L9.4091 12.7325C9.33099 12.81 9.26899 12.9022 9.22669 13.0037C9.18438 13.1053 9.1626 13.2142 9.1626 13.3242C9.1626 13.4342 9.18438 13.5431 9.22669 13.6447C9.26899 13.7462 9.33099 13.8384 9.4091 13.9159C9.48657 13.994 9.57873 14.056 9.68028 14.0983C9.78183 14.1406 9.89075 14.1624 10.0008 14.1624C10.1108 14.1624 10.2197 14.1406 10.3212 14.0983C10.4228 14.056 10.515 13.994 10.5924 13.9159L15.8341 8.68252V9.99919C15.8341 10.2202 15.9219 10.4322 16.0782 10.5884C16.2345 10.7447 16.4464 10.8325 16.6674 10.8325C16.8884 10.8325 17.1004 10.7447 17.2567 10.5884C17.413 10.4322 17.5008 10.2202 17.5008 9.99919V6.66585C17.5008 6.44484 17.413 6.23288 17.2567 6.0766C17.1004 5.92032 16.8884 5.83252 16.6674 5.83252H13.3341C13.1131 5.83252 12.9011 5.92032 12.7448 6.0766C12.5886 6.23288 12.5008 6.44484 12.5008 6.66585C12.5008 6.88687 12.5886 7.09883 12.7448 7.25511C12.9011 7.41139 13.1131 7.49919 13.3341 7.49919Z" fill="white"/>
</svg>
