<svg width="60" height="60" viewBox="0 0 60 60" fill="none" xmlns="http://www.w3.org/2000/svg">
<rect x="0.5" y="0.5" width="59" height="59" fill="#01020E"/>
<rect x="0.5" y="0.5" width="59" height="59" stroke="#BB2765"/>
<path d="M27.6387 22.4283C27.6387 24.5318 28.4744 26.5492 29.9618 28.0366C31.4492 29.524 33.4665 30.3596 35.5699 30.3596C37.6735 30.3596 39.6908 29.524 41.1782 28.0366C42.6656 26.5492 43.5012 24.5318 43.5012 22.4283C43.5012 20.3248 42.6656 18.3075 41.1782 16.8201C39.6908 15.3327 37.6735 14.4971 35.5699 14.4971C33.4665 14.4971 31.4492 15.3327 29.9618 16.8201C28.4744 18.3075 27.6387 20.3248 27.6387 22.4283Z" stroke="#AF145B" stroke-linecap="round" stroke-linejoin="round"/>
<path d="M25.8389 20.6285C25.8389 22.732 26.6746 24.7494 28.162 26.2368C29.6494 27.7242 31.6666 28.5597 33.7701 28.5597C35.8737 28.5597 37.891 27.7242 39.3784 26.2368C40.8658 24.7494 41.7014 22.732 41.7014 20.6285C41.7014 18.525 40.8658 16.5077 39.3784 15.0203C37.891 13.5329 35.8737 12.6973 33.7701 12.6973C31.6666 12.6973 29.6494 13.5329 28.162 15.0203C26.6746 16.5077 25.8389 18.525 25.8389 20.6285Z" fill="black" stroke="#AF145B" stroke-linecap="round" stroke-linejoin="round"/>
<path d="M34.4994 37.6219L43.2421 34.8291L43.3025 34.8122C43.7943 34.7045 44.3086 34.7793 44.7492 35.0229C45.1897 35.2664 45.5267 35.662 45.697 36.1358C45.8673 36.6094 45.8594 37.129 45.6747 37.5973C45.49 38.0657 45.1412 38.4507 44.6933 38.6808C27.6257 47.5177 31.9794 47.1183 14.1777 41.1881" stroke="#AF145B" stroke-linecap="round" stroke-linejoin="round"/>
<path d="M14.1797 30.3602H17.2734C20.8694 30.3235 24.3577 31.5858 27.0975 33.9152L27.1552 33.9658H32.9208C33.4959 33.9658 34.0475 34.1942 34.4542 34.6008C34.8607 35.0075 35.0892 35.5591 35.0892 36.1342C35.0896 36.7075 34.8628 37.2578 34.4585 37.6645C34.0544 38.071 33.5054 38.3011 32.932 38.3041L24.1655 38.3477" stroke="#AF145B" stroke-linecap="round" stroke-linejoin="round"/>
</svg>
