<svg width="24" height="24" viewBox="0 0 24 24" fill="none" xmlns="http://www.w3.org/2000/svg">
<path d="M7.99981 12.0073C7.99592 9.79855 9.78364 8.00422 11.992 8.00038C14.2008 7.99607 15.9955 9.78299 15.9998 11.9922C16.004 14.2014 14.2163 15.9953 12.0072 15.9996C9.79878 16.0039 8.00408 14.2166 7.99981 12.0073ZM5.8385 12.0117C5.84511 15.4149 8.60909 18.1676 12.0115 18.161C15.4142 18.1544 18.1685 15.3912 18.1619 11.9879C18.1553 8.58589 15.3909 5.83157 11.9877 5.83822C8.58533 5.84483 5.83189 8.60919 5.8385 12.0117ZM16.9527 5.58547C16.9543 6.38019 17.6004 7.02369 18.3952 7.02214C19.1902 7.02055 19.8337 6.37475 19.8326 5.58004C19.831 4.78532 19.1848 4.14144 18.3897 4.14303C17.5947 4.14458 16.9512 4.79075 16.9527 5.58547ZM7.17012 21.7761C6.00022 21.7252 5.36492 21.5308 4.94155 21.3679C4.38087 21.1509 3.9808 20.8908 3.55972 20.4729C3.13944 20.0533 2.87853 19.6544 2.65962 19.0949C2.49519 18.6715 2.29728 18.037 2.24244 16.8671C2.18295 15.6022 2.16936 15.2228 2.16355 12.0186C2.15731 8.8153 2.16898 8.4358 2.2242 7.16985C2.27431 6.00074 2.46992 5.3646 2.63244 4.9416C2.84937 4.38018 3.10873 3.98085 3.52747 3.55982C3.94695 3.13874 4.34586 2.87863 4.90573 2.65972C5.32878 2.49444 5.96328 2.29808 7.13281 2.24254C8.39834 2.18263 8.77742 2.16983 11.9808 2.1636C15.1848 2.15736 15.5643 2.16866 16.8303 2.22425C17.9993 2.27516 18.6354 2.4688 19.0581 2.63249C19.6191 2.84943 20.0192 3.10803 20.4399 3.52752C20.8605 3.94705 21.1214 4.34516 21.3403 4.90625C21.5055 5.32808 21.7019 5.96338 21.7572 7.13253C21.8174 8.39807 21.831 8.77757 21.8368 11.9809C21.843 15.1851 21.8314 15.5646 21.7758 16.8298C21.7249 17.9996 21.5308 18.6354 21.3676 19.0591C21.1506 19.6194 20.8913 20.0195 20.4721 20.4406C20.053 20.8601 19.6541 21.1217 19.0939 21.3406C18.6716 21.5055 18.0363 21.7022 16.8676 21.7578C15.602 21.8173 15.2229 21.8309 12.0185 21.8368C8.81511 21.843 8.43608 21.8309 7.17012 21.7761ZM7.03016 0.0830977C5.75333 0.143379 4.88126 0.347848 4.11917 0.646488C3.33031 0.954035 2.66159 1.36616 1.99639 2.03413C1.33034 2.70247 0.921312 3.37236 0.616108 4.16202C0.320655 4.92603 0.120405 5.79852 0.0640147 7.07614C0.00804595 8.35611 -0.00479781 8.76435 0.00143657 12.0229C0.00767094 15.2811 0.0220147 15.6901 0.0830459 16.9705C0.144077 18.2469 0.347843 19.1186 0.646437 19.881C0.954358 20.6699 1.36611 21.3383 2.03445 22.004C2.70242 22.6696 3.37273 23.0782 4.16276 23.3839C4.92598 23.6789 5.7988 23.8799 7.07605 23.9359C8.35597 23.9923 8.76458 24.0047 12.0223 23.9985C15.2817 23.9923 15.6903 23.9779 16.9702 23.9173C18.2471 23.8562 19.1183 23.6518 19.8812 23.3539C20.67 23.0452 21.3387 22.6342 22.004 21.9658C22.6692 21.2978 23.0783 20.6276 23.3835 19.8375C23.679 19.0743 23.88 18.2014 23.9355 16.925C23.9915 15.6442 24.0048 15.2352 23.9985 11.977C23.9923 8.71846 23.9776 8.31022 23.9169 7.03068C23.8563 5.75305 23.6517 4.88174 23.3535 4.11889C23.0452 3.33004 22.6339 2.66202 21.9659 1.99602C21.298 1.33077 20.6277 0.920941 19.8376 0.616535C19.074 0.321035 18.2015 0.11966 16.9243 0.0644414C15.6444 0.00767579 15.2358 -0.00474609 11.9768 0.00144141C8.71869 0.00767579 8.31008 0.0216445 7.03016 0.0830977Z" fill="#9B9B9B"/>
</svg>
