<svg width="24" height="24" viewBox="0 0 24 24" fill="none" xmlns="http://www.w3.org/2000/svg">
<path fill-rule="evenodd" clip-rule="evenodd" d="M11.0075 0.0152289C8.44504 0.310601 6.61942 1.01553 4.68969 2.45474C4.1134 2.88451 2.87354 4.12372 2.44355 4.69972C1.38328 6.11989 0.696143 7.56442 0.303021 9.19967C0.0547862 10.2321 0 10.7391 0 12.0039C0 13.2687 0.0547862 13.7757 0.303021 14.8082C0.696143 16.4434 1.38328 17.8879 2.44355 19.3081C2.87354 19.8841 4.1134 21.1233 4.68969 21.5531C6.40735 22.8342 8.2035 23.5893 10.3003 23.9119C11.0635 24.0294 12.9319 24.0294 13.695 23.9119C15.7918 23.5893 17.588 22.8342 19.3056 21.5531C19.8819 21.1233 21.1218 19.8841 21.5518 19.3081C22.8302 17.5957 23.5883 15.7942 23.9116 13.7004C24.0295 12.9373 24.0295 11.0706 23.9116 10.3075C23.5883 8.2136 22.8302 6.4121 21.5518 4.69972C21.1218 4.12372 19.8819 2.88451 19.3056 2.45474C17.6025 1.18456 15.7896 0.418421 13.7421 0.103633C13.2717 0.0312982 11.3945 -0.0293973 11.0075 0.0152289ZM8.86565 6.75281C10.7311 7.08296 12.336 8.49969 12.9378 10.3477C13.122 10.913 13.1923 11.3707 13.1923 12.0039C13.1923 13.4219 12.6929 14.6728 11.7175 15.6983C10.6934 16.7748 9.35184 17.3439 7.84862 17.3394C6.70575 17.336 5.68004 17.0005 4.78535 16.3375C3.61165 15.4677 2.86972 14.2614 2.64082 12.8509C2.19904 10.1281 3.92386 7.49713 6.59806 6.81454C7.3198 6.63033 8.05956 6.61017 8.86565 6.75281ZM17.0632 7.14521C17.4052 7.31349 17.8668 7.77413 18.119 8.19871C18.4627 8.77767 18.7565 9.61365 18.9177 10.4724C19.0307 11.0735 19.0307 12.9344 18.9177 13.5354C18.6033 15.2094 17.9106 16.4457 17.0498 16.8692C16.7815 17.0012 16.6885 17.0226 16.3824 17.0226C16.076 17.0226 15.9835 17.0013 15.7131 16.8682C14.8593 16.4481 14.1534 15.1945 13.8496 13.559C13.7313 12.9216 13.7313 11.0862 13.8496 10.4488C13.9863 9.71289 14.1569 9.18534 14.4537 8.58013C15.131 7.19907 16.0952 6.66888 17.0632 7.14521ZM20.6869 7.61141C20.9549 7.89094 21.1663 8.65364 21.3169 9.88334C21.4344 10.8432 21.4347 13.1598 21.3175 14.1245C21.1649 15.3807 20.9473 16.1472 20.6674 16.4153C20.5344 16.5427 20.5208 16.5459 20.4004 16.4783C19.9022 16.1989 19.5746 14.4235 19.5746 12.0039C19.5746 9.68523 19.8906 7.87733 20.3525 7.55401C20.4977 7.45236 20.5417 7.4599 20.6869 7.61141Z" fill="#9B9B9B"/>
</svg>
