<svg width="60" height="60" viewBox="0 0 60 60" fill="none" xmlns="http://www.w3.org/2000/svg">
<rect x="0.5" y="0.5" width="59" height="59" fill="#01020E"/>
<rect x="0.5" y="0.5" width="59" height="59" stroke="#BB2765"/>
<path d="M27.8906 35.2734C27.8906 37.2315 28.6684 39.1093 30.053 40.4939C31.4376 41.8785 33.3154 42.6562 35.2734 42.6562C37.2315 42.6562 39.1093 41.8785 40.4939 40.4939C41.8785 39.1093 42.6562 37.2315 42.6562 35.2734C42.6562 33.3154 41.8785 31.4376 40.4939 30.053C39.1093 28.6684 37.2315 27.8906 35.2734 27.8906C33.3154 27.8906 31.4376 28.6684 30.053 30.053C28.6684 31.4376 27.8906 33.3154 27.8906 35.2734Z" stroke="#AF145B" stroke-linecap="round" stroke-linejoin="round"/>
<path d="M45.82 45.8205L40.4932 40.4937" stroke="#AF145B" stroke-linecap="round" stroke-linejoin="round"/>
<path d="M30 45.8203C26.8711 45.8203 23.8123 44.8925 21.2107 43.1541C18.6091 41.4158 16.5814 38.945 15.3839 36.0542C14.1865 33.1634 13.8732 29.9824 14.4837 26.9136C15.0941 23.8448 16.6008 21.0259 18.8134 18.8134C21.0259 16.6008 23.8448 15.0941 26.9136 14.4837C29.9824 13.8732 33.1634 14.1865 36.0542 15.3839C38.945 16.5814 41.4158 18.6091 43.1541 21.2107C44.8925 23.8123 45.8203 26.8711 45.8203 30" stroke="#AF145B" stroke-linecap="round" stroke-linejoin="round"/>
<path d="M26.1877 45.3579C24.0488 42.2192 22.6172 36.5154 22.6172 30.0003C22.6172 23.4851 24.0488 17.7827 26.1877 14.6426" stroke="#AF145B" stroke-linecap="round" stroke-linejoin="round"/>
<path d="M14.2148 28.9453H25.7812" stroke="#AF145B" stroke-linecap="round" stroke-linejoin="round"/>
<path d="M17.3428 20.5078H42.6567" stroke="#AF145B" stroke-linecap="round" stroke-linejoin="round"/>
<path d="M16.0049 37.3828H23.2696" stroke="#AF145B" stroke-linecap="round" stroke-linejoin="round"/>
<path d="M33.8125 14.6426C35.4695 17.3978 36.5239 20.4728 36.9062 23.6651" stroke="#AF145B" stroke-linecap="round" stroke-linejoin="round"/>
</svg>
