<svg width="60" height="60" viewBox="0 0 60 60" fill="none" xmlns="http://www.w3.org/2000/svg">
<rect x="0.5" y="0.5" width="59" height="59" fill="#01020E" stroke="#BB2765"/>
<path d="M26.8486 30.0127C26.8486 30.8519 27.182 31.6567 27.7754 32.25C28.3688 32.8434 29.1736 33.1767 30.0127 33.1767C30.8518 33.1767 31.6566 32.8434 32.25 32.25C32.8433 31.6567 33.1768 30.8519 33.1768 30.0127C33.1768 29.1735 32.8433 28.3687 32.25 27.7753C31.6566 27.182 30.8518 26.8486 30.0127 26.8486C29.1736 26.8486 28.3688 27.182 27.7754 27.7753C27.182 28.3687 26.8486 29.1735 26.8486 30.0127Z" stroke="#AF145B" stroke-linecap="round" stroke-linejoin="round"/>
<path d="M15.0972 44.9292C16.4817 46.3138 19.381 46.0701 23.1572 44.2519C26.9335 42.4338 31.2774 39.19 35.2331 35.2341C39.1889 31.2783 42.4329 26.9344 44.251 23.1582C46.0691 19.382 46.3128 16.4827 44.9282 15.0981C43.5436 13.7136 40.6444 13.9572 36.8682 15.7754C33.092 17.5936 28.7481 20.8374 24.7923 24.7932C20.8364 28.7491 17.5926 33.0929 15.7744 36.8691C13.9562 40.6453 13.7126 43.5447 15.0972 44.9292Z" stroke="#AF145B" stroke-linecap="round" stroke-linejoin="round"/>
<path d="M24.7923 35.2342C26.7511 37.1928 28.8256 38.9975 30.8976 40.5448C32.9697 42.0921 34.9985 43.3518 36.8682 44.2521C38.7381 45.1524 40.4123 45.6755 41.7952 45.7918C43.1781 45.9079 44.2427 45.6149 44.9283 44.9293C45.6138 44.2438 45.9069 43.1791 45.7907 41.7962C45.6746 40.4132 45.1513 38.739 44.251 36.8693C43.3508 34.9994 42.091 32.9706 40.5437 30.8986C38.9964 28.8266 37.1919 26.752 35.2332 24.7933C33.2744 22.8345 31.1999 21.03 29.1278 19.4827C27.0559 17.9354 25.027 16.6757 23.1572 15.7754C21.2874 14.8751 19.6133 14.3519 18.2303 14.2357C16.8474 14.1195 15.7827 14.4126 15.0972 15.0981C14.4116 15.7837 14.1186 16.8483 14.2348 18.2313C14.351 19.6142 14.8741 21.2884 15.7744 23.1582C16.6747 25.028 17.9344 27.0568 19.4817 29.1288C21.029 31.2008 22.8336 33.2754 24.7923 35.2342Z" stroke="#AF145B" stroke-linecap="round" stroke-linejoin="round"/>
</svg>
