<svg width="60" height="60" viewBox="0 0 60 60" fill="none" xmlns="http://www.w3.org/2000/svg">
<rect x="0.5" y="0.5" width="59" height="59" fill="#01020E"/>
<rect x="0.5" y="0.5" width="59" height="59" stroke="#BB2765"/>
<g clip-path="url(#clip0_4259_416)">
<path d="M41.7871 30H46.3072" stroke="#AF145B" stroke-linecap="round" stroke-linejoin="round"/>
<path d="M12.4072 30H16.9273" stroke="#AF145B" stroke-linecap="round" stroke-linejoin="round"/>
<path d="M29.3574 13.0498V17.5699" stroke="#AF145B" stroke-linecap="round" stroke-linejoin="round"/>
<path d="M29.3574 42.4302V46.9503" stroke="#AF145B" stroke-linecap="round" stroke-linejoin="round"/>
<path d="M39.5272 25.4795H33.8771V19.8294C33.8771 19.23 33.639 18.6551 33.2152 18.2313C32.7914 17.8075 32.2164 17.5693 31.617 17.5693H27.097C26.4976 17.5693 25.9227 17.8075 25.4989 18.2313C25.075 18.6551 24.8369 19.23 24.8369 19.8294V25.4795H19.1868C18.5874 25.4795 18.0125 25.7176 17.5887 26.1414C17.1649 26.5653 16.9268 27.1402 16.9268 27.7395V32.2596C16.9268 32.859 17.1649 33.4339 17.5887 33.8578C18.0125 34.2816 18.5874 34.5197 19.1868 34.5197H24.8369V40.1698C24.8369 40.7691 25.075 41.3441 25.4989 41.7679C25.9227 42.1918 26.4976 42.4298 27.097 42.4298H31.617C32.2164 42.4298 32.7914 42.1918 33.2152 41.7679C33.639 41.3441 33.8771 40.7691 33.8771 40.1698V34.5197H39.5272C40.1266 34.5197 40.7015 34.2816 41.1254 33.8578C41.5492 33.4339 41.7872 32.859 41.7872 32.2596V27.7395C41.7872 27.1402 41.5492 26.5653 41.1254 26.1414C40.7015 25.7176 40.1266 25.4795 39.5272 25.4795Z" stroke="#AF145B" stroke-linecap="round" stroke-linejoin="round"/>
</g>
<defs>
<clipPath id="clip0_4259_416">
<rect width="36" height="36" fill="white" transform="translate(12 12)"/>
</clipPath>
</defs>
</svg>
