<svg width="60" height="60" viewBox="0 0 60 60" fill="none" xmlns="http://www.w3.org/2000/svg">
<rect x="0.5" y="0.5" width="59" height="59" fill="#01020E" stroke="#BB2765"/>
<path d="M21.6737 12.2056L21.7349 12.1717L21.7844 12.1223C22.7993 11.1105 24.2085 10.5 25.6015 10.5C26.9761 10.5 28.2052 11.0955 29.252 11.9076L36.5156 18.9114C37.5256 19.92 38.1392 21.3695 38.1392 22.7599C38.1392 24.1651 37.5174 25.5838 36.5581 26.3323L36.5382 26.3479L36.5199 26.3654L33.7274 29.0393C34.2304 26.9035 33.629 24.5674 32.055 22.7659C32.0346 22.7066 32.0055 22.6494 31.9672 22.5953C31.8923 22.4898 31.7996 22.4236 31.7513 22.3902C31.7197 22.3684 31.6934 22.3511 31.6703 22.336C31.6097 22.2962 31.571 22.2707 31.5147 22.2147L31.5148 22.2146L31.5068 22.2069L21.5893 12.7488C21.5244 12.6833 21.5151 12.65 21.5116 12.6376C21.5031 12.6069 21.5 12.5687 21.5 12.4373C21.5 12.3679 21.5021 12.337 21.5031 12.3252C21.5163 12.3102 21.5593 12.2689 21.6737 12.2056ZM21.4982 12.3315C21.4982 12.3315 21.4985 12.331 21.4991 12.3301L21.4982 12.3315Z" stroke="#AF145B"/>
<path d="M23.5613 38.6573L23.5614 38.6573L23.5582 38.6541C22.5433 37.6423 21.9316 36.238 21.9316 34.8505C21.9316 33.4646 22.5419 32.0619 23.5547 31.0503L26.1762 28.5401C25.6803 30.6328 26.2911 32.898 27.8232 34.6523C27.8403 34.7031 27.8629 34.7509 27.8902 34.7955C27.9416 34.8796 28.0062 34.9433 28.0302 34.967C28.032 34.9687 28.0335 34.9703 28.0348 34.9716C28.0372 34.9739 28.0394 34.9761 28.0413 34.9781L28.0653 35.0975L28.1726 35.2046L34.7873 41.7996C35.8022 42.8114 36.4139 44.2157 36.4139 45.6032C36.4139 46.9907 35.8022 48.395 34.7873 49.4069C34.7194 49.4746 34.6847 49.4845 34.6714 49.4882C34.64 49.4969 34.601 49.4999 34.4693 49.4999C34.3376 49.4999 34.2986 49.4969 34.2672 49.4882C34.254 49.4845 34.2197 49.4747 34.1527 49.4083C34.1522 49.4078 34.1517 49.4073 34.1513 49.4069L23.5613 38.6573Z" stroke="#AF145B"/>
<path d="M32.3451 22.582L25.3906 29.5365" stroke="#AF145B" stroke-width="1.26446"/>
<path d="M34.4858 27.9316L27.5312 34.8862" stroke="#AF145B" stroke-width="1.26446"/>
</svg>
