<svg width="30" height="36" viewBox="0 0 30 36" fill="none" xmlns="http://www.w3.org/2000/svg">
<path d="M24.667 17.9989C24.3487 17.9989 24.0435 18.1254 23.8184 18.3504C23.5934 18.5754 23.467 18.8807 23.467 19.1989V26.3989C23.467 26.7172 23.3405 27.0224 23.1155 27.2475C22.8905 27.4725 22.5852 27.5989 22.267 27.5989H7.86697C7.54871 27.5989 7.24348 27.4725 7.01844 27.2475C6.7934 27.0224 6.66697 26.7172 6.66697 26.3989V11.9989C6.66697 11.6807 6.7934 11.3754 7.01844 11.1504C7.24348 10.9254 7.54871 10.7989 7.86697 10.7989H15.067C15.3852 10.7989 15.6905 10.6725 15.9155 10.4475C16.1405 10.2224 16.267 9.91719 16.267 9.59893C16.267 9.28067 16.1405 8.97544 15.9155 8.7504C15.6905 8.52535 15.3852 8.39893 15.067 8.39893H7.86697C6.91219 8.39893 5.99651 8.77821 5.32138 9.45334C4.64625 10.1285 4.26697 11.0441 4.26697 11.9989V26.3989C4.26697 27.3537 4.64625 28.2694 5.32138 28.9445C5.99651 29.6196 6.91219 29.9989 7.86697 29.9989H22.267C23.2217 29.9989 24.1374 29.6196 24.8126 28.9445C25.4877 28.2694 25.867 27.3537 25.867 26.3989V19.1989C25.867 18.8807 25.7405 18.5754 25.5155 18.3504C25.2905 18.1254 24.9852 17.9989 24.667 17.9989Z" fill="#BB2765"/>
<path d="M19.8681 10.7989H21.7641L14.2161 18.3349C14.1036 18.4465 14.0144 18.5792 13.9534 18.7254C13.8925 18.8717 13.8611 19.0285 13.8611 19.1869C13.8611 19.3453 13.8925 19.5022 13.9534 19.6484C14.0144 19.7946 14.1036 19.9274 14.2161 20.0389C14.3277 20.1514 14.4604 20.2407 14.6066 20.3016C14.7528 20.3625 14.9097 20.3939 15.0681 20.3939C15.2265 20.3939 15.3834 20.3625 15.5296 20.3016C15.6758 20.2407 15.8085 20.1514 15.9201 20.0389L23.4681 12.5029V14.3989C23.4681 14.7172 23.5945 15.0224 23.8196 15.2475C24.0446 15.4725 24.3498 15.5989 24.6681 15.5989C24.9864 15.5989 25.2916 15.4725 25.5166 15.2475C25.7417 15.0224 25.8681 14.7172 25.8681 14.3989V9.59893C25.8681 9.28067 25.7417 8.97544 25.5166 8.7504C25.2916 8.52535 24.9864 8.39893 24.6681 8.39893H19.8681C19.5498 8.39893 19.2446 8.52535 19.0196 8.7504C18.7945 8.97544 18.6681 9.28067 18.6681 9.59893C18.6681 9.91719 18.7945 10.2224 19.0196 10.4475C19.2446 10.6725 19.5498 10.7989 19.8681 10.7989Z" fill="#BB2765"/>
</svg>
