<svg width="24" height="20" viewBox="0 0 24 20" fill="none" xmlns="http://www.w3.org/2000/svg">
<path d="M23.643 2.93708C22.808 3.30708 21.911 3.55708 20.968 3.67008C21.941 3.08787 22.669 2.17154 23.016 1.09208C22.1019 1.63507 21.1014 2.01727 20.058 2.22208C19.3564 1.47294 18.4271 0.976403 17.4144 0.809551C16.4016 0.642699 15.3621 0.814868 14.4573 1.29933C13.5524 1.78379 12.8328 2.55344 12.4102 3.48878C11.9876 4.42412 11.8856 5.47283 12.12 6.47208C10.2677 6.37907 8.45565 5.89763 6.80145 5.05898C5.14725 4.22034 3.68787 3.04324 2.51803 1.60408C2.11803 2.29408 1.88803 3.09408 1.88803 3.94608C1.88758 4.71307 2.07646 5.46832 2.43791 6.14481C2.79935 6.8213 3.32219 7.39812 3.96003 7.82408C3.2203 7.80054 2.4969 7.60066 1.85003 7.24108V7.30108C1.84995 8.37682 2.22206 9.41945 2.90321 10.2521C3.58436 11.0847 4.5326 11.656 5.58703 11.8691C4.90081 12.0548 4.18136 12.0821 3.48303 11.9491C3.78052 12.8747 4.36002 13.6841 5.14039 14.264C5.92077 14.8439 6.86294 15.1653 7.83503 15.1831C6.18486 16.4785 4.14691 17.1812 2.04903 17.1781C1.67741 17.1782 1.3061 17.1565 0.937027 17.1131C3.0665 18.4823 5.54537 19.2089 8.07703 19.2061C16.647 19.2061 21.332 12.1081 21.332 5.95208C21.332 5.75208 21.327 5.55008 21.318 5.35008C22.2293 4.69105 23.0159 3.87497 23.641 2.94008L23.643 2.93708Z" fill="#9B9B9B"/>
</svg>
