<svg width="24" height="18" viewBox="0 0 24 18" fill="none" xmlns="http://www.w3.org/2000/svg">
<path fill-rule="evenodd" clip-rule="evenodd" d="M23.7551 4.20168C23.7551 4.20168 23.5208 2.54737 22.7997 1.821C21.886 0.865608 20.8629 0.85942 20.3951 0.80407C17.0391 0.55957 11.9987 0.55957 11.9987 0.55957H11.9899C11.9899 0.55957 6.95168 0.55957 3.5939 0.80407C3.1244 0.861183 2.1026 0.865195 1.18928 1.821C0.467784 2.54737 0.238359 4.20168 0.238359 4.20168C0.238359 4.20168 -0.000366211 6.14298 -0.000366211 8.0883V9.90738C-0.000366211 11.8487 0.238359 13.794 0.238359 13.794C0.238359 13.794 0.472659 15.4483 1.18928 16.176C2.1026 17.1314 3.3029 17.1004 3.83885 17.2023C5.76023 17.3856 12.0005 17.441 12.0005 17.441C12.0005 17.441 17.0453 17.4321 20.4013 17.1921C20.8708 17.1367 21.8922 17.1309 22.8059 16.1751C23.5274 15.4487 23.7613 13.7926 23.7613 13.7926C23.7613 13.7926 24.0001 11.8514 24.0001 9.90603V8.08698C23.9952 6.14565 23.7564 4.20037 23.7564 4.20037L23.7551 4.20168ZM9.51263 12.1144V5.36925L15.9961 8.75313L9.51263 12.1144Z" fill="#9B9B9B"/>
</svg>
